<svg viewBox="0 0 18 18">
<path d="M4.61745 1.74758C5.05 1.43692 5.14884 0.834422 4.83817 0.401858C4.52751 -0.0307044 3.925 -0.129526 3.49245 0.181133C2.4124 0.956806 1.53239 1.97831 0.92513 3.16127C0.317861 4.34423 0.000753479 5.6547 1.57644e-07 6.98442C-0.000301088 7.51698 0.43118 7.94895 0.96374 7.94925C1.4963 7.94955 1.92828 7.51807 1.92857 6.98551C1.92915 5.96174 2.17329 4.9528 2.64084 4.04202C3.10838 3.13125 3.7859 2.34478 4.61745 1.74758ZM9 1.60722C7.46554 1.60722 5.99391 2.21679 4.90888 3.30181C3.82386 4.38684 3.21429 5.85847 3.21429 7.39293V11.8929C3.21429 12.2339 3.07882 12.5609 2.83771 12.8021C2.59659 13.0431 2.26957 13.1786 1.92857 13.1786C1.57353 13.1786 1.28571 13.4665 1.28571 13.8215C1.28571 14.1765 1.57353 14.4644 1.92857 14.4644H16.0714C16.4264 14.4644 16.7143 14.1765 16.7143 13.8215C16.7143 13.4665 16.4264 13.1786 16.0714 13.1786C15.7305 13.1786 15.4034 13.0431 15.1623 12.8021C14.9212 12.5609 14.7857 12.2339 14.7857 11.8929V7.39293C14.7857 5.85847 14.1762 4.38684 13.0911 3.30181C12.0061 2.21679 10.5345 1.60722 9 1.60722ZM13.1619 0.401858C13.4725 -0.0307044 14.075 -0.129526 14.5076 0.181133C15.5876 0.956806 16.4676 1.97831 17.0749 3.16127C17.6822 4.34423 17.9992 5.6547 18 6.98442C18.0003 7.51698 17.5688 7.94895 17.0362 7.94925C16.5037 7.94955 16.0717 7.51807 16.0714 6.98551C16.0709 5.96174 15.8268 4.9528 15.3591 4.04202C14.8917 3.13125 14.2141 2.34478 13.3826 1.74758C12.95 1.43692 12.8512 0.834422 13.1619 0.401858ZM9 18C7.57984 18 6.42857 16.8487 6.42857 15.4286H11.5714C11.5714 16.8487 10.4202 18 9 18Z" />
</svg>
