<svg viewBox="0 0 19 18">
<path d="M5.93684 1.28571C5.93684 0.575634 5.3612 0 4.65112 0C3.94105 0 3.36541 0.575634 3.36541 1.28571V2.57143H2.07969C1.01457 2.57143 0.151123 3.43488 0.151123 4.5V6.42857H18.1511V4.5C18.1511 3.43488 17.2876 2.57143 16.2226 2.57143H14.937V1.28571C14.937 0.575634 14.3614 0 13.6513 0C12.9412 0 12.3655 0.575634 12.3655 1.28571V2.57143H5.93684V1.28571ZM18.1511 8.03571H0.151123V16.0714C0.151123 17.1365 1.01457 18 2.07969 18H16.2226C17.2876 18 18.1511 17.1365 18.1511 16.0714V8.03571Z"/>
</svg>
