<svg viewBox="0 0 18 18">
<path fill-rule="evenodd" clip-rule="evenodd" d="M7.09148 0.886154L6.47903 2.42308L4.3711 3.58615L2.69045 3.33692C2.41061 3.29999 2.12579 3.34479 1.87218 3.46559C1.61858 3.5864 1.40763 3.77776 1.26617 4.01539L0.696462 4.98461C0.550475 5.22602 0.483215 5.50479 0.503557 5.78412C0.523899 6.06345 0.630889 6.33023 0.810404 6.54924L1.87862 7.83692V10.1631L0.838889 11.4508C0.659374 11.6698 0.552385 11.9365 0.532043 12.2159C0.5117 12.4952 0.57896 12.774 0.724947 13.0154L1.29466 13.9846C1.43612 14.2222 1.64707 14.4136 1.90066 14.5344C2.15426 14.6552 2.43908 14.7 2.71894 14.6631L4.39958 14.4139L6.47903 15.5769L7.09148 17.1139C7.19476 17.3741 7.37647 17.598 7.61282 17.756C7.84918 17.9141 8.12915 17.9992 8.41605 18H9.61245C9.89936 17.9992 10.1793 17.9141 10.4157 17.756C10.652 17.598 10.8337 17.3741 10.937 17.1139L11.5495 15.5769L13.6289 14.4139L15.3096 14.6631C15.5895 14.7 15.8742 14.6552 16.1279 14.5344C16.3814 14.4136 16.5923 14.2222 16.7339 13.9846L17.3036 13.0154C17.4495 12.774 17.5168 12.4952 17.4964 12.2159C17.4761 11.9365 17.3691 11.6698 17.1896 11.4508L16.1214 10.1631V7.83692L17.1612 6.54924C17.3406 6.33023 17.4476 6.06345 17.468 5.78412C17.4884 5.50479 17.4211 5.22602 17.275 4.98461L16.7053 4.01539C16.5639 3.77776 16.353 3.5864 16.0993 3.46559C15.8458 3.34479 15.5609 3.29999 15.281 3.33692L13.6005 3.58615L11.521 2.42308L10.9085 0.886154C10.8052 0.625935 10.6235 0.402107 10.3872 0.243986C10.1508 0.0858654 9.87087 0.000823924 9.58396 0H8.41605C8.12915 0.000823924 7.84918 0.0858654 7.61282 0.243986C7.37647 0.402107 7.19476 0.625935 7.09148 0.886154ZM9.00002 11.8929C10.6435 11.8929 11.9757 10.5977 11.9757 9C11.9757 7.40232 10.6435 6.10714 9.00002 6.10714C7.35657 6.10714 6.02429 7.40232 6.02429 9C6.02429 10.5977 7.35657 11.8929 9.00002 11.8929Z"/>
</svg>
