<svg viewBox="0 0 16 16">
<path d="M10.6923 11.7692V13.9231C10.6923 14.2087 10.5788 14.4826 10.3769 14.6846C10.1749 14.8865 9.901 15 9.61538 15H2.07692C1.7913 15 1.51739 14.8865 1.31542 14.6846C1.11346 14.4826 1 14.2087 1 13.9231V2.07692C1 1.7913 1.11346 1.51739 1.31542 1.31542C1.51739 1.11346 1.7913 1 2.07692 1H9.61538C9.901 1 10.1749 1.11346 10.3769 1.31542C10.5788 1.51739 10.6923 1.7913 10.6923 2.07692V4.23077" stroke="#78788E" stroke-width="1.30667" stroke-linecap="round" stroke-linejoin="round"/>
<path d="M7.46143 8H14.9999" stroke="#78788E" stroke-width="1.30667" stroke-linecap="round" stroke-linejoin="round"/>
<path d="M12.8462 5.84619L15 8.00004L12.8462 10.1539" stroke="#78788E" stroke-width="1.30667" stroke-linecap="round" stroke-linejoin="round"/>
</svg>
