<svg viewBox="0 0 16 16" >
<path fill-rule="evenodd" clip-rule="evenodd" d="M2.28571 10.4476V3.22298H13.7143V10.4476H2.28571ZM1.6649 1C0.745405 1 0 1.72495 0 2.61921V11.0514C0 11.9457 0.745406 12.6706 1.6649 12.6706H6.26635L5.6547 14.3328H4.57141C4.09802 14.3328 3.71426 14.706 3.71426 15.1664C3.71426 15.6268 4.09802 16 4.57141 16H11.4285C11.9019 16 12.2857 15.6268 12.2857 15.1664C12.2857 14.706 11.9019 14.3328 11.4285 14.3328H10.3453L9.73365 12.6706H14.3351C15.2546 12.6706 16 11.9457 16 11.0514V2.61921C16 1.72495 15.2546 1 14.3351 1H1.6649Z"/>
</svg>
