<svg viewBox="0 0 19 4">
<path d="M1.75185 2.3306C1.56914 2.3306 1.42102 2.18248 1.42102 1.99977C1.42102 1.81706 1.56914 1.66895 1.75185 1.66895" stroke="#78788E" stroke-width="2.52632" stroke-linecap="round" stroke-linejoin="round"/>
<path d="M1.75212 2.3306C1.93483 2.3306 2.08295 2.18248 2.08295 1.99977C2.08295 1.81706 1.93483 1.66895 1.75212 1.66895" stroke="#78788E" stroke-width="2.52632" stroke-linecap="round" stroke-linejoin="round"/>
<path d="M9.15079 2.3306C8.96808 2.3306 8.81996 2.18248 8.81996 1.99977C8.81996 1.81706 8.96808 1.66895 9.15079 1.66895" stroke="#78788E" stroke-width="2.52632" stroke-linecap="round" stroke-linejoin="round"/>
<path d="M9.15057 2.3306C9.33328 2.3306 9.4814 2.18248 9.4814 1.99977C9.4814 1.81706 9.33328 1.66895 9.15057 1.66895" stroke="#78788E" stroke-width="2.52632" stroke-linecap="round" stroke-linejoin="round"/>
<path d="M16.549 2.3306C16.3663 2.3306 16.2182 2.18248 16.2182 1.99977C16.2182 1.81706 16.3663 1.66895 16.549 1.66895" stroke="#78788E" stroke-width="2.52632" stroke-linecap="round" stroke-linejoin="round"/>
<path d="M16.5494 2.3306C16.7322 2.3306 16.8803 2.18248 16.8803 1.99977C16.8803 1.81706 16.7322 1.66895 16.5494 1.66895" stroke="#78788E" stroke-width="2.52632" stroke-linecap="round" stroke-linejoin="round"/>
</svg>
