<svg viewBox="0 0 15 14">
<path d="M14.7578 0.294991C15.0961 0.671043 15.0778 1.26169 14.717 1.61424L9.20488 7L14.717 12.3858C15.0778 12.7383 15.0961 13.329 14.7578 13.705C14.4195 14.0811 13.8528 14.1001 13.492 13.7476L7.28304 7.6809C7.10246 7.50446 7 7.25798 7 7C7 6.74202 7.10246 6.49554 7.28304 6.3191L13.492 0.252435C13.8528 -0.100113 14.4195 -0.0810601 14.7578 0.294991Z"/>
<path d="M7.75779 0.294991C8.09606 0.671043 8.07778 1.26169 7.71696 1.61424L2.20488 7L7.71696 12.3858C8.07778 12.7383 8.09606 13.329 7.75779 13.705C7.41953 14.0811 6.85281 14.1001 6.49199 13.7476L0.283038 7.6809C0.102455 7.50446 0 7.25798 0 7C0 6.74202 0.102455 6.49554 0.283038 6.3191L6.49199 0.252435C6.85281 -0.100113 7.41953 -0.0810601 7.75779 0.294991Z"/>
</svg>
