<svg viewBox="0 0 15 14">
<path d="M0.242209 13.705C-0.0960572 13.329 -0.0777765 12.7383 0.283041 12.3858L5.79512 7L0.283042 1.61424C-0.0777755 1.26169 -0.0960561 0.671042 0.24221 0.29499C0.580476 -0.0810608 1.14719 -0.100114 1.50801 0.252434L7.71696 6.3191C7.89755 6.49554 8 6.74202 8 7C8 7.25798 7.89755 7.50446 7.71696 7.6809L1.50801 13.7476C1.14719 14.1001 0.580474 14.0811 0.242209 13.705Z"/>
<path d="M7.24221 13.705C6.90394 13.329 6.92222 12.7383 7.28304 12.3858L12.7951 7L7.28304 1.61424C6.92222 1.26169 6.90394 0.671042 7.24221 0.29499C7.58048 -0.0810608 8.14719 -0.100114 8.50801 0.252434L14.717 6.3191C14.8975 6.49554 15 6.74202 15 7C15 7.25798 14.8975 7.50446 14.717 7.6809L8.50801 13.7476C8.14719 14.1001 7.58047 14.0811 7.24221 13.705Z"/>
</svg>
